<?xml version="1.0" encoding="UTF-8" standalone="no"?>
<svg
   xmlns:osb="http://www.openswatchbook.org/uri/2009/osb"
   xmlns:dc="http://purl.org/dc/elements/1.1/"
   xmlns:cc="http://creativecommons.org/ns#"
   xmlns:rdf="http://www.w3.org/1999/02/22-rdf-syntax-ns#"
   xmlns:svg="http://www.w3.org/2000/svg"
   xmlns="http://www.w3.org/2000/svg"
   xmlns:sodipodi="http://sodipodi.sourceforge.net/DTD/sodipodi-0.dtd"
   xmlns:inkscape="http://www.inkscape.org/namespaces/inkscape"
   width="210mm"
   height="297mm"
   viewBox="0 0 210 297"
   version="1.1"
   id="svg8"
   inkscape:version="1.0.1 (3bc2e813f5, 2020-09-07)"
   sodipodi:docname="buttons.svg">
  <defs
     id="defs2">
    <rect
       x="930.3059"
       y="-61.759496"
       width="181.52143"
       height="67.358517"
       id="rect997" />
    <linearGradient
       id="linearGradient1556"
       osb:paint="gradient">
      <stop
         style="stop-color:#000000;stop-opacity:1;"
         offset="0"
         id="stop1552" />
      <stop
         style="stop-color:#000000;stop-opacity:0;"
         offset="1"
         id="stop1554" />
    </linearGradient>
  </defs>
  <sodipodi:namedview
     id="base"
     pagecolor="#ffffff"
     bordercolor="#666666"
     borderopacity="1.0"
     inkscape:pageopacity="0.0"
     inkscape:pageshadow="2"
     inkscape:zoom="0.98994949"
     inkscape:cx="226.23551"
     inkscape:cy="601.93758"
     inkscape:document-units="mm"
     inkscape:current-layer="layer1"
     inkscape:document-rotation="0"
     showgrid="false"
     inkscape:snap-intersection-paths="true"
     inkscape:window-width="2560"
     inkscape:window-height="1369"
     inkscape:window-x="0"
     inkscape:window-y="42"
     inkscape:window-maximized="1"
     inkscape:snap-smooth-nodes="true"
     inkscape:snap-midpoints="true"
     inkscape:snap-global="false" />
  <metadata
     id="metadata5">
    <rdf:RDF>
      <cc:Work
         rdf:about="">
        <dc:format>image/svg+xml</dc:format>
        <dc:type
           rdf:resource="http://purl.org/dc/dcmitype/StillImage" />
        <dc:title />
      </cc:Work>
    </rdf:RDF>
  </metadata>
  <g
     inkscape:label="Layer 1"
     inkscape:groupmode="layer"
     id="layer1">
    <g
       id="g865"
       transform="translate(-2.4282617,-5.4551918)">
      <g
         id="g909"
         transform="matrix(0.67786464,0,0,0.67786464,-26.936882,-162.32949)"
         style="stroke-width:1.47522">
        <rect
           style="fill:#707070;fill-opacity:1;stroke:#000000;stroke-width:0.335105;stroke-linecap:round;stroke-linejoin:bevel;stroke-dashoffset:12.0735;stop-color:#000000"
           id="rect862"
           width="52.772842"
           height="52.772842"
           x="55.005257"
           y="261.40073" />
        <path
           id="path899"
           style="fill:#b0b0b1;fill-opacity:1;stroke:#222223;stroke-width:1.70543;stroke-linecap:round;stroke-linejoin:round;stroke-miterlimit:4;stroke-dasharray:none;stroke-dashoffset:12.0735;stroke-opacity:1;paint-order:markers fill stroke;stop-color:#000000"
           d="m 97.364374,271.92482 -2.560045,2.56005 a 18.890728,18.890728 0 0 0 -0.0548,-0.0555 18.890728,18.890728 0 0 0 -26.715678,0 18.890728,18.890728 0 0 0 2e-6,26.71567 18.890728,18.890728 0 0 0 26.715676,0 18.890728,18.890728 0 0 0 0.01059,-0.0106 L 90.51993,296.8942 a 12.8944,12.8944 0 0 1 -0.01059,0.0106 12.8944,12.8944 0 0 1 -18.235298,0 12.8944,12.8944 0 0 1 0,-18.23529 12.8944,12.8944 0 0 1 18.190719,-0.0446 12.8944,12.8944 0 0 1 0.04458,0.0446 12.8944,12.8944 0 0 1 0.0548,0.0555 l -2.630204,2.6302 11.895479,2.46504 z" />
      </g>
    </g>
    <g
       id="g860"
       transform="translate(-20.21124,-5.4551918)">
      <rect
         style="fill:#707070;fill-opacity:1;stroke:#000000;stroke-width:0.227156;stroke-linecap:round;stroke-linejoin:bevel;stroke-dashoffset:12.0735;stop-color:#000000"
         id="rect911"
         width="35.772842"
         height="35.772842"
         x="72.066986"
         y="14.864817" />
      <g
         id="g941"
         transform="matrix(0.67786464,0,0,0.67786464,23.618619,5.0489887)"
         style="stroke-width:1.47522">
        <path
           id="rect928"
           style="fill:#b0b0b1;fill-opacity:1;stroke:#222223;stroke-width:1.53942;stroke-linecap:round;stroke-linejoin:round;stroke-miterlimit:4;stroke-dasharray:none;stroke-dashoffset:12.0735;stroke-opacity:1;paint-order:markers fill stroke;stop-color:#000000"
           d="M 93.215498,40.866935 82.155006,24.626674 v 16.240261 16.240259 z" />
        <path
           style="fill:none;fill-rule:evenodd;stroke:#000000;stroke-width:1.70536;stroke-linecap:butt;stroke-linejoin:miter;stroke-miterlimit:4;stroke-dasharray:none;stroke-opacity:1"
           d="M 97.858467,20.936981 V 60.796888"
           id="path934" />
        <path
           id="path936"
           style="fill:#b0b0b1;fill-opacity:1;stroke:#222223;stroke-width:1.53942;stroke-linecap:round;stroke-linejoin:round;stroke-miterlimit:4;stroke-dasharray:none;stroke-dashoffset:12.0735;stroke-opacity:1;paint-order:markers fill stroke;stop-color:#000000"
           d="m 102.50142,40.866934 11.06049,-16.24026 v 16.24026 16.24026 z" />
      </g>
    </g>
    <g
       id="g853"
       transform="translate(-39.289592,-6.2460218)">
      <rect
         style="fill:#707070;fill-opacity:1;stroke:#000000;stroke-width:0.227156;stroke-linecap:round;stroke-linejoin:bevel;stroke-dashoffset:12.0735;stop-color:#000000"
         id="rect862-6"
         width="35.772842"
         height="35.772842"
         x="135.08012"
         y="15.655653" />
      <g
         id="g1594"
         transform="matrix(0.47932269,0.47932269,-0.47932269,0.47932269,131.51012,-96.791826)"
         style="stroke-width:1.47522">
        <path
           id="rect1500"
           style="fill:#b0b0b1;fill-opacity:1;stroke:#222223;stroke-width:1.53942;stroke-linecap:round;stroke-linejoin:round;stroke-miterlimit:4;stroke-dasharray:none;stroke-dashoffset:12.0735;stroke-opacity:1;paint-order:markers fill stroke;stop-color:#000000"
           d="m 158.30812,89.163852 a 5.8773505,2.9433896 0 0 0 -5.84696,2.943042 5.8773505,2.9433896 0 0 0 -2e-5,0.01554 v 38.220416 a 5.8773505,2.9433896 0 0 1 5.87708,-2.94304 5.8773505,2.9433896 0 0 1 5.87701,2.928 V 92.10638 a 5.8773505,2.9433896 0 0 0 -5.87701,-2.943046 5.8773505,2.9433896 0 0 0 -0.0301,1.4e-5 z" />
        <path
           id="ellipse1504"
           style="fill:#b0b0b1;fill-opacity:1;stroke:#222223;stroke-width:1.53942;stroke-linecap:round;stroke-linejoin:round;stroke-miterlimit:4;stroke-dasharray:none;stroke-dashoffset:12.0735;stroke-opacity:1;paint-order:markers fill stroke;stop-color:#000000"
           d="m 158.28895,98.17591 a 7.2929131,3.0733249 0 0 0 -7.19168,3.07401 7.2929131,3.0733249 0 0 0 1.08032,1.6093 7.2929131,3.0733249 0 0 1 6.21243,-1.46472 7.2929131,3.0733249 0 0 1 6.21245,1.46369 7.2929131,3.0733249 0 0 0 1.08028,-1.60827 7.2929131,3.0733249 0 0 0 -7.29274,-3.074013 7.2929131,3.0733249 0 0 0 -0.10089,0 z" />
        <path
           id="path1511"
           style="fill:#b0b0b1;fill-opacity:1;stroke:#222223;stroke-width:1.53942;stroke-linecap:round;stroke-linejoin:round;stroke-miterlimit:4;stroke-dasharray:none;stroke-dashoffset:12.0735;stroke-opacity:1;paint-order:markers fill stroke;stop-color:#000000"
           d="m 158.28895,101.3945 a 7.2929131,3.0733249 0 0 0 -7.19168,3.07402 7.2929131,3.0733249 0 0 0 1.08032,1.60929 7.2929131,3.0733249 0 0 1 6.21243,-1.46472 7.2929131,3.0733249 0 0 1 6.21245,1.46369 7.2929131,3.0733249 0 0 0 1.08028,-1.60827 7.2929131,3.0733249 0 0 0 -7.29273,-3.07401 7.2929131,3.0733249 0 0 0 -0.101,0 z" />
        <path
           id="ellipse1523"
           style="fill:#b0b0b1;fill-opacity:1;stroke:#222223;stroke-width:1.53942;stroke-linecap:round;stroke-linejoin:round;stroke-miterlimit:4;stroke-dasharray:none;stroke-dashoffset:12.0735;stroke-opacity:1;paint-order:markers fill stroke;stop-color:#000000"
           d="m 158.30808,127.38527 a 5.8773505,2.9433896 0 0 0 -5.84692,2.94305 l 5.87704,11.28852 5.87708,-11.28852 a 5.8773505,2.9433896 0 0 0 -5.87709,-2.94304 5.8773505,2.9433896 0 0 0 -0.0301,1e-5 z" />
      </g>
    </g>
    <g
       id="g947"
       transform="matrix(0.16474388,0,0,0.16474388,10.296129,45.625466)">
      <g
         id="g850"
         transform="translate(-23.826628,54.798089)">
        <path
           inkscape:connector-curvature="0"
           style="clip-rule:evenodd;fill:#ffffff;fill-rule:evenodd;stroke:#000000;stroke-width:1.76635"
           d="m 114.11608,40.086765 12.36448,12.36443 -12.36448,12.364443 z m 0,76.129605 12.36448,-12.36444 -12.36448,-12.364434 z M 100.8685,78.239883 74.019982,51.214753 81.791937,43.442818 103.16477,64.815638 V 13.591539 l 38.85964,38.859656 -25.61206,25.788688 25.78871,25.788687 -38.85965,38.85966 V 91.487496 l -21.549473,21.372814 -7.771955,-7.77194 z"
           id="path24"
           sodipodi:nodetypes="ccccccccccccccccccccc" />
        <ellipse
           style="opacity:1;vector-effect:none;fill:#ffffff;fill-opacity:1;fill-rule:nonzero;stroke:#000000;stroke-width:1.766;stroke-linecap:square;stroke-linejoin:miter;stroke-miterlimit:4;stroke-dasharray:none;stroke-dashoffset:0;stroke-opacity:1;paint-order:fill markers stroke"
           id="path880"
           cx="83.578407"
           cy="78.239883"
           rx="6.5039639"
           ry="6.4122076" />
        <ellipse
           cy="78.239883"
           cx="65.347389"
           id="circle882"
           style="opacity:1;vector-effect:none;fill:#ffffff;fill-opacity:1;fill-rule:nonzero;stroke:#000000;stroke-width:1.766;stroke-linecap:square;stroke-linejoin:miter;stroke-miterlimit:4;stroke-dasharray:none;stroke-dashoffset:0;stroke-opacity:1;paint-order:fill markers stroke"
           rx="6.5039639"
           ry="6.4122076" />
        <ellipse
           style="opacity:1;vector-effect:none;fill:#ffffff;fill-opacity:1;fill-rule:nonzero;stroke:#000000;stroke-width:1.766;stroke-linecap:square;stroke-linejoin:miter;stroke-miterlimit:4;stroke-dasharray:none;stroke-dashoffset:0;stroke-opacity:1;paint-order:fill markers stroke"
           id="circle884"
           cx="47.116379"
           cy="78.239883"
           rx="6.5039639"
           ry="6.4122076" />
        <ellipse
           ry="6.4122076"
           rx="6.5039639"
           cy="78.239883"
           cx="169.10466"
           id="ellipse913"
           style="opacity:1;vector-effect:none;fill:#ffffff;fill-opacity:1;fill-rule:nonzero;stroke:#000000;stroke-width:1.766;stroke-linecap:square;stroke-linejoin:miter;stroke-miterlimit:4;stroke-dasharray:none;stroke-dashoffset:0;stroke-opacity:1;paint-order:fill markers stroke" />
        <ellipse
           ry="6.4122076"
           rx="6.5039639"
           style="opacity:1;vector-effect:none;fill:#ffffff;fill-opacity:1;fill-rule:nonzero;stroke:#000000;stroke-width:1.766;stroke-linecap:square;stroke-linejoin:miter;stroke-miterlimit:4;stroke-dasharray:none;stroke-dashoffset:0;stroke-opacity:1;paint-order:fill markers stroke"
           id="ellipse915"
           cx="150.87364"
           cy="78.239883" />
        <ellipse
           ry="6.4122076"
           rx="6.5039639"
           cy="78.239883"
           cx="132.64262"
           id="ellipse917"
           style="opacity:1;vector-effect:none;fill:#ffffff;fill-opacity:1;fill-rule:nonzero;stroke:#000000;stroke-width:1.766;stroke-linecap:square;stroke-linejoin:miter;stroke-miterlimit:4;stroke-dasharray:none;stroke-dashoffset:0;stroke-opacity:1;paint-order:fill markers stroke" />
      </g>
      <rect
         style="fill:none;stroke:#222223;stroke-width:0.264582;stroke-linecap:round;stroke-linejoin:round;stroke-miterlimit:4;stroke-dasharray:none;stroke-dashoffset:12.0735;stroke-opacity:1;paint-order:markers fill stroke;stop-color:#000000"
         id="rect841"
         width="145.41609"
         height="145.41609"
         x="11.575846"
         y="60.329933" />
      <g
         id="g903"
         transform="translate(-23.826628,54.798089)">
        <path
           inkscape:connector-curvature="0"
           style="clip-rule:evenodd;fill:#ffffff;fill-rule:evenodd;stroke:#000000;stroke-width:1.76635"
           d="m 114.11608,40.086765 12.36448,12.36443 -12.36448,12.364443 z m 0,76.129605 12.36448,-12.36444 -12.36448,-12.364434 z M 100.8685,78.239883 74.019982,51.214753 81.791937,43.442818 103.16477,64.815638 V 13.591539 l 38.85964,38.859656 -25.61206,25.788688 25.78871,25.788687 -38.85965,38.85966 V 91.487496 l -21.549473,21.372814 -7.771955,-7.77194 z"
           id="path889"
           sodipodi:nodetypes="ccccccccccccccccccccc" />
        <ellipse
           style="opacity:1;vector-effect:none;fill:#ffffff;fill-opacity:1;fill-rule:nonzero;stroke:#000000;stroke-width:1.766;stroke-linecap:square;stroke-linejoin:miter;stroke-miterlimit:4;stroke-dasharray:none;stroke-dashoffset:0;stroke-opacity:1;paint-order:fill markers stroke"
           id="ellipse891"
           cx="83.578407"
           cy="78.239883"
           rx="6.5039639"
           ry="6.4122076" />
        <ellipse
           cy="78.239883"
           cx="65.347389"
           id="ellipse893"
           style="opacity:1;vector-effect:none;fill:#ffffff;fill-opacity:1;fill-rule:nonzero;stroke:#000000;stroke-width:1.766;stroke-linecap:square;stroke-linejoin:miter;stroke-miterlimit:4;stroke-dasharray:none;stroke-dashoffset:0;stroke-opacity:1;paint-order:fill markers stroke"
           rx="6.5039639"
           ry="6.4122076" />
        <ellipse
           style="opacity:1;vector-effect:none;fill:#ffffff;fill-opacity:1;fill-rule:nonzero;stroke:#000000;stroke-width:1.766;stroke-linecap:square;stroke-linejoin:miter;stroke-miterlimit:4;stroke-dasharray:none;stroke-dashoffset:0;stroke-opacity:1;paint-order:fill markers stroke"
           id="ellipse895"
           cx="47.116379"
           cy="78.239883"
           rx="6.5039639"
           ry="6.4122076" />
        <ellipse
           ry="6.4122076"
           rx="6.5039639"
           cy="78.239883"
           cx="169.10466"
           id="ellipse897"
           style="opacity:1;vector-effect:none;fill:#ffffff;fill-opacity:1;fill-rule:nonzero;stroke:#000000;stroke-width:1.766;stroke-linecap:square;stroke-linejoin:miter;stroke-miterlimit:4;stroke-dasharray:none;stroke-dashoffset:0;stroke-opacity:1;paint-order:fill markers stroke" />
        <ellipse
           ry="6.4122076"
           rx="6.5039639"
           style="opacity:1;vector-effect:none;fill:#ffffff;fill-opacity:1;fill-rule:nonzero;stroke:#000000;stroke-width:1.766;stroke-linecap:square;stroke-linejoin:miter;stroke-miterlimit:4;stroke-dasharray:none;stroke-dashoffset:0;stroke-opacity:1;paint-order:fill markers stroke"
           id="ellipse899"
           cx="150.87364"
           cy="78.239883" />
        <ellipse
           ry="6.4122076"
           rx="6.5039639"
           cy="78.239883"
           cx="132.64262"
           id="ellipse901"
           style="opacity:1;vector-effect:none;fill:#ffffff;fill-opacity:1;fill-rule:nonzero;stroke:#000000;stroke-width:1.766;stroke-linecap:square;stroke-linejoin:miter;stroke-miterlimit:4;stroke-dasharray:none;stroke-dashoffset:0;stroke-opacity:1;paint-order:fill markers stroke" />
      </g>
      <rect
         style="fill:none;stroke:#222223;stroke-width:0.264582;stroke-linecap:round;stroke-linejoin:round;stroke-miterlimit:4;stroke-dasharray:none;stroke-dashoffset:12.0735;stroke-opacity:1;paint-order:markers fill stroke;stop-color:#000000"
         id="rect905"
         width="145.41609"
         height="145.41609"
         x="11.575846"
         y="60.329933" />
    </g>
    <g
       id="g975"
       transform="matrix(0.74134744,0,0,0.74134744,27.158519,38.409905)">
      <g
         id="g862"
         transform="translate(-3.1105192,70.260113)">
        <rect
           style="opacity:1;vector-effect:none;fill:#0070f9;fill-opacity:1;fill-rule:nonzero;stroke:#050804;stroke-width:0;stroke-linecap:round;stroke-linejoin:bevel;stroke-miterlimit:4;stroke-dasharray:none;stroke-dashoffset:0;stroke-opacity:1;paint-order:normal"
           id="rect2406"
           width="145.68068"
           height="145.68068"
           x="35.27018"
           y="5.3995476" />
        <path
           id="ellipse2389"
           style="opacity:1;vector-effect:none;fill:#2a9549;fill-opacity:1;fill-rule:nonzero;stroke:#ffffff;stroke-width:0;stroke-linecap:round;stroke-linejoin:bevel;stroke-miterlimit:4;stroke-dasharray:none;stroke-dashoffset:0;stroke-opacity:1;paint-order:normal"
           d="M 157.5332,296.51562 A 450.52802,172.73608 0 0 0 0,307.43164 V 550.60352 H 550.60352 V 384.78125 a 450.52802,172.73608 0 0 0 -392.98438,-88.26563 450.52802,172.73608 0 0 0 -0.0859,0 z"
           transform="matrix(0.26458333,0,0,0.26458333,35.270179,5.3995471)" />
        <path
           id="path2335"
           style="opacity:1;vector-effect:none;fill:#2ab049;fill-opacity:1;fill-rule:nonzero;stroke:#ffffff;stroke-width:0;stroke-linecap:round;stroke-linejoin:bevel;stroke-miterlimit:4;stroke-dasharray:none;stroke-dashoffset:0;stroke-opacity:1;paint-order:normal"
           d="M 458.89648,327.83008 A 462.39729,305.57114 0 0 0 13.798828,550.60352 H 550.60352 V 333.89844 a 462.39729,305.57114 0 0 0 -91.70704,-6.06836 z"
           transform="matrix(0.26458333,0,0,0.26458333,35.270179,5.3995471)" />
      </g>
      <g
         id="g826"
         transform="translate(-44.849614,6.003034)"
         style="fill:#ceff00;fill-opacity:1;fill-rule:nonzero">
        <path
           style="fill:#ceff00;fill-opacity:1;fill-rule:nonzero;stroke-width:0.264583"
           d="m 138.57721,179.19436 c 2.01242,-4.35737 8.23536,-0.897 12.01177,-2.02332 3.25856,0.78395 10.70458,-2.17134 10.40701,2.79889 -1.06792,1.39273 -3.44695,0.26202 -5.11932,0.61349 -5.80428,0 -11.60855,0 -17.41283,0 l 0.0567,-0.69453 z m -7.49302,-3.21332 c -1.38838,-3.8308 5.57195,-2.54872 6.72767,-2.10183 1.46574,4.21984 -4.59282,2.15851 -6.72767,2.10183 z m 30.58531,-1.08616 c -0.22322,-2.76039 5.67164,-1.2232 6.70762,-0.89597 1.25401,3.85602 -5.42322,2.17254 -6.70762,1.93398 0,-0.346 0,-0.69201 0,-1.03801 z m -38.1,-3.83646 c -0.56189,-2.72428 3.14228,-1.20531 4.75022,-1.49912 2.74691,-1.26621 2.94261,3.88537 0.21059,2.99341 -1.70982,-0.52058 -5.80727,1.53238 -4.96081,-1.49429 z m 45.61562,1.2209 c -1.52147,-4.18112 5.38145,-2.77957 6.70602,-2.41029 1.59204,4.55612 -4.29935,2.50288 -6.70602,2.41029 z m -49.52613,-6.97558 c -0.79831,-2.23037 0.9503,-4.93654 3.08623,-2.73418 -0.22513,2.72892 1.27103,7.85176 -3.07793,5.86557 -0.14187,-1.02964 0.009,-2.09173 -0.008,-3.13139 z m 57.14999,0 c -0.79823,-2.23037 0.95042,-4.93654 3.08632,-2.73418 -0.22513,2.72893 1.27104,7.85175 -3.07793,5.86557 -0.16192,-1.0291 0.0238,-2.09192 -0.008,-3.13139 z m -38.04981,-0.6944 c -1.2745,-3.42526 2.50941,-2.65964 4.55964,-2.67904 5.80819,0 11.61638,0 17.42457,0 1.28594,5.01374 -5.27777,2.19821 -8.09656,2.96446 -4.61274,-0.0602 -9.33565,0.32034 -13.88765,-0.28542 z m -22.674,-3.50469 c -0.30643,-2.62684 -1.20405,-8.89874 2.78898,-6.20058 -0.79563,2.35215 1.58614,7.7123 -2.78898,6.20058 z m 19.05,0 c -2.25613,-3.4521 4.29264,-4.45196 2.57964,-0.63459 0.27164,1.34139 -1.91473,0.56899 -2.57964,0.63459 z m 26.72291,0 c -2.25611,-3.4521 4.29265,-4.45196 2.57965,-0.63459 0.27164,1.3414 -1.91474,0.56899 -2.57965,0.63459 z m 19.05,0 c -0.30643,-2.62684 -1.20405,-8.89874 2.78898,-6.20058 -0.79563,2.35215 1.58614,7.7123 -2.78898,6.20058 z m -49.82389,-4.17361 c -1.63741,-3.61851 5.35431,-3.25798 2.85318,0.36905 -0.94545,-0.10623 -2.02784,0.28971 -2.85318,-0.36905 z m 34.28947,-1.08616 c -0.49456,-3.3725 5.60657,-0.46856 2.42494,1.29651 -1.33535,0.14327 -2.88675,0.77989 -2.42494,-1.29651 z m -53.71041,-13.36146 c 0,-3.76647 0,-7.53293 0,-11.2994 4.64142,-0.77426 3.33822,5.1346 3.43646,7.9471 0.0364,4.77413 0.16256,9.56344 -0.32761,14.32089 -3.49018,1.66159 -3.27292,-1.68222 -3.10885,-3.9895 0,-2.32636 0,-4.65273 0,-6.97909 z m 74.34791,11.13552 c -3.17931,-0.87686 -0.67048,-6.46469 -1.51549,-9.20977 -0.0426,-4.11505 -0.0781,-8.23267 0.096,-12.34541 2.46117,-2.37938 4.19757,0.27409 3.2639,2.80481 -0.009,6.31631 0.11047,12.63694 -0.19077,18.94881 l -0.82591,-0.10678 -0.82773,-0.0917 z m -58.62486,-0.37569 c -1.75387,-3.84698 5.08993,-3.45923 2.71485,0.23276 -0.89586,-0.074 -1.93406,0.43928 -2.71485,-0.23276 z m 41.80417,0 c -1.75386,-3.84698 5.08993,-3.45924 2.71485,0.23276 -0.89586,-0.074 -1.93406,0.43928 -2.71485,-0.23276 z m -45.62097,-8.90774 c 0,-1.76389 0,-3.52778 0,-5.29167 2.92515,-0.95544 3.18589,1.24443 2.91041,3.45821 0,2.37504 0,4.75008 0,7.12512 -2.92515,0.95544 -3.18589,-1.24443 -2.91041,-3.45821 0,-0.61115 0,-1.2223 0,-1.83345 z m 49.47708,0 c 0,-1.76389 0,-3.52778 0,-5.29167 2.92515,-0.95544 3.18589,1.24443 2.91041,3.45821 0,2.37504 0,4.75008 0,7.12512 -2.92515,0.95544 -3.18589,-1.24443 -2.91041,-3.45821 0,-0.61115 0,-1.2223 0,-1.83345 z m -34.25926,-6.40222 c 0.42933,-2.61356 -0.94827,-3.89916 -3.39319,-3.54275 -0.32311,-2.51128 -1.97677,-8.06057 2.40247,-6.80991 1.68642,-0.77936 -0.11452,-5.10186 3.38745,-3.72456 1.16628,1.34194 0.14692,5.09861 3.5443,3.70431 1.71518,0.85025 0.37138,3.30187 0.71248,4.88291 1.16875,3.33169 -3.37474,0.97122 -3.61406,3.31828 0.59866,2.32419 -1.06775,3.04046 -3.03945,2.17172 z m 19.05,0 c 0.42933,-2.61356 -0.94827,-3.89916 -3.39319,-3.54275 -0.32311,-2.51128 -1.97677,-8.06057 2.40247,-6.80991 1.68642,-0.77936 -0.11452,-5.10186 3.38745,-3.72456 1.16628,1.34194 0.14692,5.09861 3.5443,3.70431 1.71518,0.85025 0.37138,3.30187 0.71248,4.88291 1.16875,3.33169 -3.37474,0.97122 -3.61406,3.31828 0.59866,2.32419 -1.06775,3.04046 -3.03945,2.17172 z m -41.8825,-10.72955 c -0.76588,-2.06475 0.86982,-5.00495 2.83705,-2.68226 -0.0884,2.58328 0.95281,8.15632 -2.96125,5.54194 0.15028,-0.94414 0.0721,-1.90779 0.1242,-2.85968 z m 64.82291,0 c -0.7658,-2.06476 0.86993,-5.00494 2.83715,-2.68226 -0.0884,2.58328 0.95282,8.15632 -2.96126,5.54194 0.13985,-0.94486 0.0791,-1.90739 0.12411,-2.85968 z m -60.98871,-4.1994 c -0.13395,-2.79358 -1.50712,-8.50458 2.92228,-6.47286 -0.50912,2.60607 1.74752,8.08034 -2.92228,6.47286 z m 57.15,0 c -0.13397,-2.79357 -1.50713,-8.50458 2.92227,-6.47286 -0.50912,2.60606 1.74752,8.08034 -2.92227,6.47286 z m -53.36952,-9.09591 c -0.56189,-2.72428 3.14228,-1.20531 4.75022,-1.49912 2.74691,-1.26621 2.94261,3.88535 0.21059,2.9934 -1.7098,-0.52058 -5.80727,1.53237 -4.96081,-1.49428 z m 45.61562,1.22089 c -1.52147,-4.18111 5.38145,-2.77956 6.70602,-2.41028 1.59203,4.55612 -4.29935,2.50289 -6.70602,2.41028 z m -38.10093,-3.9712 c -1.38837,-3.83078 5.57195,-2.54871 6.72767,-2.10182 1.46574,4.21984 -4.59282,2.15852 -6.72767,2.10182 z m 30.58531,-1.08615 c -0.22322,-2.76044 5.67164,-1.22311 6.70762,-0.89597 1.25401,3.85601 -5.42323,2.17252 -6.70762,1.93397 0,-0.346 0,-0.692 0,-1.038 z m -22.87484,-2.57969 c -1.66159,-3.49018 1.68222,-3.27292 3.9895,-3.10885 6.09283,0 12.18566,0 18.27849,0 0.77431,4.64114 -5.13408,3.33836 -7.94647,3.43646 -4.77456,0.0363 -9.56356,0.16284 -14.32152,-0.32761 z"
           id="path828"
           inkscape:connector-curvature="0" />
      </g>
    </g>
    <text
       xml:space="preserve"
       id="text995"
       style="font-size:4.93889px;line-height:100%;font-family:'Noto Serif Armenian';-inkscape-font-specification:'Noto Serif Armenian';letter-spacing:0px;word-spacing:0px;white-space:pre;shape-inside:url(#rect997);fill:none;stroke:#000000;stroke-width:0.264583px;stroke-linecap:butt;stroke-linejoin:miter;stroke-opacity:1;"
       transform="translate(-915.48961,290.72926)"><tspan
         x="930.30664"
         y="-57.881284"><tspan
           style="font-size:4.93889px;fill:#000000;stroke:none">Android dp is equal to inskape mm
</tspan></tspan><tspan
         x="930.30664"
         y="-52.816312"><tspan
           style="font-size:4.93889px;fill:#000000;stroke:none">
</tspan></tspan><tspan
         x="930.30664"
         y="-47.751341"><tspan
           style="font-size:4.93889px;fill:#000000;stroke:none">
</tspan></tspan><tspan
         x="930.30664"
         y="-42.686369"><tspan
           style="font-size:4.93889px;fill:#000000;stroke:none">Toolbars icons are generally 24dp.
</tspan></tspan><tspan
         x="930.30664"
         y="-37.621397"><tspan
           style="font-size:4.93889px;fill:#000000;stroke:none">Notification icons are 24dp.
</tspan></tspan><tspan
         x="930.30664"
         y="-32.556425"><tspan
           style="font-size:4.93889px;fill:#000000;stroke:none">
</tspan></tspan><tspan
         x="930.30664"
         y="-27.491453"><tspan
           style="font-size:4.93889px;fill:#000000;stroke:none">A default button is 36dp tall (plus 6dp on top and bottom making it 48dp </tspan></tspan><tspan
         x="930.30664"
         y="-22.426481"><tspan
           style="font-size:4.93889px;fill:#000000;stroke:none">in total) so I wouldn't go past 36dp for an icon. Anything beyond that </tspan></tspan><tspan
         x="930.30664"
         y="-17.361509"><tspan
           style="font-size:4.93889px;fill:#000000;stroke:none">would stretch the button.
</tspan></tspan><tspan
         x="930.30664"
         y="-12.296537"><tspan
           style="font-size:4.93889px;fill:#000000;stroke:none">
</tspan></tspan><tspan
         x="930.30664"
         y="-7.2315651"><tspan
           style="font-size:4.93889px;fill:#000000;stroke:none">https://stackoverflow.com/questions/35506714/what</tspan><tspan
           style="font-size:4.93889px;fill:#000000;stroke:none">-</tspan><tspan
           style="font-size:4.93889px;fill:#000000;stroke:none">package</tspan><tspan
           style="font-size:4.93889px;fill:#000000;stroke:none">-</tspan><tspan
           style="font-size:4.93889px;fill:#000000;stroke:none">to</tspan><tspan
           style="font-size:4.93889px;fill:#000000;stroke:none">-</tspan></tspan><tspan
         x="930.30664"
         y="-2.1665927"><tspan
           style="font-size:4.93889px;fill:#000000;stroke:none">download</tspan><tspan
           style="font-size:4.93889px;fill:#000000;stroke:none">-</tspan><tspan
           style="font-size:4.93889px;fill:#000000;stroke:none">for</tspan><tspan
           style="font-size:4.93889px;fill:#000000;stroke:none">-</tspan><tspan
           style="font-size:4.93889px;fill:#000000;stroke:none">material</tspan><tspan
           style="font-size:4.93889px;fill:#000000;stroke:none">-</tspan><tspan
           style="font-size:4.93889px;fill:#000000;stroke:none">design</tspan><tspan
           style="font-size:4.93889px;fill:#000000;stroke:none">-</tspan><tspan
           style="font-size:4.93889px;fill:#000000;stroke:none">icons</tspan></tspan></text>
  </g>
</svg>
